<svg xmlns="http://www.w3.org/2000/svg" viewBox="0 0 280 72" role="img" aria-labelledby="title desc">
  <title id="title">AIResQ ClimSols</title>
  <desc id="desc">AIResQ ClimSols FloodAstra brand mark</desc>
  <defs>
    <linearGradient id="aqua" x1="0" x2="1" y1="0" y2="1">
      <stop offset="0" stop-color="#6BC3D2"/>
      <stop offset="0.55" stop-color="#5CADBA"/>
      <stop offset="1" stop-color="#20545B"/>
    </linearGradient>
  </defs>
  <rect width="280" height="72" rx="14" fill="#FFFFFF"/>
  <g transform="translate(14 10)">
    <path d="M26 0 50 12v18c0 14.6-9.8 22.7-24 27C11.8 52.7 2 44.6 2 30V12L26 0Z" fill="url(#aqua)"/>
    <path d="M14 35c6-15 17-23 32-25-8 7-14 16-18 27-4-4-8-5-14-2Z" fill="#FFFFFF" opacity=".92"/>
    <path d="M10 42c11-8 23-9 37-4" fill="none" stroke="#B1DEE2" stroke-width="4" stroke-linecap="round"/>
  </g>
  <g fill="#20545B" font-family="Roboto, Poppins, Arial, sans-serif">
    <text x="76" y="34" font-size="24" font-weight="700" letter-spacing=".2">AIResQ ClimSols</text>
    <text x="77" y="54" font-size="12" font-weight="500" fill="#5298A9" letter-spacing=".8">FLOODASTRA COMMAND</text>
  </g>
</svg>
